<svg xmlns="http://www.w3.org/2000/svg" viewBox="-1 0 32 32"><path fill-rule="evenodd" d="M14 18h2v-2h-2v2Zm0 8h2v-2h-2v2Zm8-8h2v-2h-2v2Zm0 8h2v-2h-2v2ZM6 26h2v-2H6v2ZM28 8H2V6c0-1.1.9-2 2-2h4v1a1 1 0 1 0 2 0V4h10v1a1 1 0 1 0 2 0V4h4a2 2 0 0 1 2 2v2Zm-2 10a2 2 0 0 1-2 2h-2a2 2 0 0 1-2-2v-2c0-1.1.9-2 2-2h2a2 2 0 0 1 2 2v2Zm0 8a2 2 0 0 1-2 2h-2a2 2 0 0 1-2-2v-2c0-1.1.9-2 2-2h2a2 2 0 0 1 2 2v2Zm-8-8a2 2 0 0 1-2 2h-2a2 2 0 0 1-2-2v-2c0-1.1.9-2 2-2h2a2 2 0 0 1 2 2v2Zm0 8a2 2 0 0 1-2 2h-2a2 2 0 0 1-2-2v-2c0-1.1.9-2 2-2h2a2 2 0 0 1 2 2v2Zm-8-8a2 2 0 0 1-2 2H6a2 2 0 0 1-2-2v-2c0-1.1.9-2 2-2h2a2 2 0 0 1 2 2v2Zm0 8a2 2 0 0 1-2 2H6a2 2 0 0 1-2-2v-2c0-1.1.9-2 2-2h2a2 2 0 0 1 2 2v2ZM26 2h-4V1a1 1 0 1 0-2 0v1H10V1a1 1 0 1 0-2 0v1H4a4 4 0 0 0-4 4v22a4 4 0 0 0 4 4h22a4 4 0 0 0 4-4V6a4 4 0 0 0-4-4ZM6 18h2v-2H6v2Z"/></svg>